<svg xmlns="http://www.w3.org/2000/svg" viewBox="0 0 390 56" role="img" aria-label="Blue Team Africa">
  <title>Blue Team Africa — Digital Solutions · East Africa</title>
  <g transform="translate(0,7.0) scale(0.1795)">
    <path d="M 100,228 C 38,200 7,166 7,120 L 7,28 Q 7,7 28,7 L 172,7 Q 193,7 193,28 L 193,120 C 193,166 162,200 100,228 Z" fill="none" stroke="#1e3a8a" stroke-width="2.5" stroke-linejoin="round"/>
    <g transform="translate(26,28) scale(0.74)">
      <path d="M148.30,113.12 L159.14,119.35 L159.33,121.03 L163.43,123.94 L162.12,127.52 L162.29,129.16 L164.11,130.22 L163.39,135.00 L166.62,140.32 L164.35,142.00 L155.75,144.40 L150.17,143.81 L147.83,137.70 L139.26,134.58 L136.06,129.29 L135.26,123.42 L139.29,120.11 L138.48,117.37 L139.47,115.29 L138.34,113.65 L148.30,113.12 Z M26.67,30.04 L26.61,35.19 L17.23,35.04 L17.32,42.47 L14.65,42.73 L14.49,48.42 L3.30,48.40 L2.68,49.37 L2.80,48.14 L9.28,47.92 L11.74,41.55 L15.71,38.42 L18.88,32.28 L26.30,31.59 L26.67,30.04 Z M135.26,123.42 L136.06,129.29 L139.26,134.58 L133.53,135.12 L132.49,144.61 L136.05,145.73 L136.28,148.86 L134.10,148.83 L129.04,144.07 L127.29,144.99 L120.73,142.16 L114.73,142.55 L113.51,131.53 L108.83,130.52 L106.91,131.14 L105.76,133.55 L101.35,133.79 L98.08,127.42 L86.64,128.07 L86.24,127.17 L87.52,124.85 L90.29,123.43 L93.09,124.79 L97.16,120.62 L98.31,115.41 L101.82,111.59 L104.41,98.15 L107.05,95.74 L115.44,98.66 L116.69,96.68 L124.72,95.09 L129.64,95.16 L132.65,97.91 L136.33,96.99 L139.53,100.17 L139.35,103.56 L140.50,103.95 L136.79,108.62 L134.36,118.60 L135.26,123.42 Z M170.24,115.24 L168.55,112.85 L168.52,102.27 L171.80,98.06 L176.17,95.96 L179.90,95.83 L191.25,82.91 L191.28,77.22 L197.46,75.44 L195.86,83.64 L190.27,94.85 L184.47,102.06 L174.67,109.51 L170.24,115.24 Z M163.43,123.94 L159.33,121.03 L159.14,119.35 L148.30,113.12 L148.27,110.04 L151.53,104.82 L148.59,98.01 L152.28,94.37 L153.76,94.85 L154.74,97.44 L156.73,97.44 L160.35,99.91 L164.46,100.42 L167.91,97.99 L171.01,98.98 L168.52,102.27 L168.55,112.85 L170.24,115.24 L166.47,117.83 L163.43,123.94 Z M121.62,86.46 L118.45,84.35 L118.73,81.06 L115.11,73.63 L114.11,73.80 L117.21,64.82 L119.68,65.02 L119.57,52.27 L122.86,52.27 L122.86,46.47 L156.76,46.47 L158.52,56.30 L161.17,58.09 L156.72,61.11 L155.06,70.97 L149.31,79.49 L148.50,85.14 L147.78,80.37 L146.31,79.22 L146.31,74.99 L144.98,74.79 L143.07,75.58 L144.00,78.18 L141.01,81.87 L137.13,80.47 L134.19,83.06 L127.86,82.86 L125.12,80.12 L123.06,80.52 L121.54,84.46 L119.68,85.32 L121.62,86.46 Z M119.54,53.49 L119.68,65.02 L117.21,64.82 L114.11,73.80 L115.11,73.63 L116.75,78.00 L113.50,79.67 L111.43,82.84 L105.18,84.27 L105.46,85.29 L102.76,87.44 L95.08,88.80 L94.23,84.81 L91.30,82.62 L91.92,81.25 L95.62,81.37 L94.07,78.73 L93.13,71.64 L91.30,71.58 L90.12,68.63 L91.35,64.81 L94.99,62.07 L96.87,51.15 L94.56,48.47 L93.86,43.96 L96.75,42.37 L119.54,53.49 Z M98.13,193.35 L99.50,191.91 L101.11,193.95 L104.19,194.71 L108.27,193.01 L108.27,182.28 L110.74,185.48 L111.11,188.27 L113.16,187.97 L118.03,183.74 L120.60,184.91 L124.76,184.37 L128.91,178.82 L135.52,174.51 L140.55,174.98 L142.66,181.13 L142.39,185.41 L140.13,185.08 L139.10,188.02 L140.81,189.60 L145.23,188.02 L143.44,193.86 L132.06,205.53 L125.09,208.94 L115.93,208.70 L108.78,211.41 L103.94,209.49 L102.64,205.06 L103.49,202.31 L98.13,193.35 Z M134.22,194.45 L135.21,195.32 L131.73,199.06 L128.57,197.12 L131.64,194.14 L134.22,194.45 Z M140.55,174.98 L131.49,172.75 L130.64,169.89 L126.19,166.39 L123.61,161.87 L128.70,162.45 L134.14,156.95 L137.93,155.39 L138.11,156.48 L140.49,156.42 L145.28,158.89 L144.74,169.32 L140.55,174.98 Z M135.52,174.51 L128.91,178.82 L124.76,184.37 L120.60,184.91 L118.03,183.74 L113.16,187.97 L111.11,188.27 L110.74,185.48 L108.27,182.28 L108.27,173.81 L111.09,173.71 L111.17,163.36 L117.71,162.25 L118.80,163.45 L123.61,161.87 L126.19,166.39 L130.64,169.89 L131.49,172.75 L135.52,174.51 Z M108.27,182.28 L108.27,193.01 L104.19,194.71 L101.11,193.95 L99.50,191.91 L98.13,193.35 L94.89,189.03 L92.16,174.57 L85.13,162.83 L84.95,160.60 L89.89,159.64 L91.60,160.96 L103.61,160.63 L105.59,162.02 L112.51,162.43 L120.10,160.59 L123.08,161.41 L118.80,163.45 L117.71,162.25 L111.17,163.36 L111.09,173.71 L108.27,173.81 L108.27,182.28 Z M3.68,70.87 L1.07,67.58 L5.37,62.57 L9.78,62.15 L13.04,63.78 L16.66,67.91 L18.53,74.22 L3.78,74.39 L3.31,72.16 L11.87,71.14 L8.34,70.06 L3.68,70.87 Z M18.53,74.22 L16.66,67.91 L18.10,65.67 L35.61,65.34 L36.24,63.30 L32.99,37.88 L37.36,37.83 L60.42,53.16 L60.45,55.01 L63.62,54.73 L63.63,61.42 L61.82,65.14 L48.38,66.87 L42.56,71.03 L39.98,71.23 L36.51,76.34 L35.99,80.24 L28.49,80.72 L25.35,74.61 L22.39,75.96 L18.70,75.28 L18.53,74.22 Z M2.68,49.37 L3.30,48.40 L14.49,48.42 L14.65,42.73 L17.32,42.47 L17.23,35.04 L26.61,35.19 L26.62,30.80 L37.36,37.83 L32.99,37.88 L36.24,63.30 L35.61,65.34 L18.10,65.67 L16.66,67.91 L13.04,63.78 L9.78,62.15 L4.39,63.50 L4.92,52.01 L2.68,49.37 Z M59.12,92.18 L56.76,92.52 L56.18,83.85 L53.64,79.95 L55.56,76.82 L59.57,74.82 L61.75,76.49 L62.28,79.18 L59.21,85.65 L59.12,92.18 Z M93.86,43.96 L94.56,48.47 L96.87,51.15 L94.99,62.07 L91.35,64.81 L90.12,68.63 L91.30,71.58 L93.13,71.64 L91.95,74.10 L88.81,70.87 L86.58,72.49 L82.83,71.48 L77.19,73.11 L73.73,71.61 L70.92,72.27 L66.98,70.09 L63.17,71.06 L61.75,76.49 L59.57,74.82 L57.58,75.68 L57.65,73.69 L54.35,73.03 L52.50,67.00 L61.82,65.14 L63.63,61.42 L63.62,54.73 L67.65,53.43 L85.71,42.19 L91.84,45.04 L93.86,43.96 Z M59.12,92.18 L59.21,85.65 L62.02,81.13 L61.94,73.90 L63.91,70.43 L66.98,70.09 L70.92,72.27 L73.73,71.61 L77.19,73.11 L82.83,71.48 L86.58,72.49 L88.81,70.87 L93.08,75.26 L84.99,90.08 L83.03,91.06 L80.34,89.91 L77.81,91.64 L75.72,96.50 L68.28,97.98 L63.79,92.15 L59.12,92.18 Z M92.85,73.01 L95.62,81.37 L91.92,81.25 L91.30,82.62 L94.23,84.81 L95.53,88.02 L92.96,92.27 L92.80,96.61 L96.75,101.60 L96.97,105.34 L92.39,103.89 L79.00,103.72 L79.41,101.43 L75.68,97.30 L76.45,94.44 L80.34,89.91 L83.03,91.06 L84.99,90.08 L90.21,79.00 L92.62,76.75 L93.08,75.26 L91.95,74.10 L92.85,73.01 Z M54.00,78.42 L53.64,79.95 L56.18,83.85 L56.76,92.52 L54.46,93.14 L53.06,90.28 L52.48,80.76 L51.29,79.26 L51.50,78.36 L54.00,78.42 Z M51.50,78.36 L53.46,86.22 L53.06,90.28 L54.46,93.14 L45.82,96.68 L43.27,95.85 L42.16,92.20 L44.11,86.49 L43.03,78.52 L51.50,78.36 Z M28.49,80.72 L33.70,79.79 L34.14,81.04 L35.99,80.24 L39.06,82.45 L43.35,82.35 L44.11,86.49 L42.16,92.20 L43.27,95.85 L38.14,95.35 L29.39,97.68 L29.80,93.78 L26.85,91.57 L27.72,86.20 L29.05,85.45 L27.69,81.93 L28.49,80.72 Z M12.28,73.80 L18.53,74.22 L18.70,75.28 L22.39,75.96 L25.35,74.61 L28.49,80.72 L27.69,81.93 L29.05,85.45 L27.72,86.20 L27.77,88.03 L25.12,89.12 L23.56,85.55 L21.41,86.11 L19.66,81.18 L15.93,81.79 L13.58,84.50 L8.20,78.29 L12.16,76.05 L12.28,73.80 Z M3.78,74.39 L12.28,73.80 L12.16,76.05 L8.20,78.29 L3.78,74.39 Z M27.32,88.04 L26.85,91.57 L29.80,93.78 L29.39,97.68 L25.70,96.32 L18.75,90.65 L22.20,85.94 L23.56,85.55 L25.12,89.12 L27.32,88.04 Z M13.58,84.50 L15.93,81.79 L19.66,81.18 L22.20,85.94 L18.75,90.65 L14.43,87.71 L13.58,84.50 Z M35.99,80.24 L36.51,76.34 L39.20,71.94 L42.56,71.03 L48.38,66.87 L52.50,67.00 L54.35,73.03 L57.65,73.69 L56.96,76.55 L54.00,78.42 L43.03,78.52 L43.35,82.35 L39.06,82.45 L35.99,80.24 Z M129.64,95.16 L121.17,95.52 L116.69,96.68 L115.44,98.66 L107.05,95.74 L104.41,98.15 L104.15,100.18 L100.38,99.53 L97.18,103.77 L92.80,96.61 L92.74,94.52 L95.08,88.80 L102.76,87.44 L105.46,85.29 L105.18,84.27 L111.43,82.84 L113.50,79.67 L116.75,78.00 L118.73,81.06 L118.45,84.35 L123.19,87.63 L129.64,95.16 Z M104.15,100.18 L101.82,111.59 L98.31,115.41 L97.16,120.62 L93.09,124.79 L91.84,123.45 L89.31,124.54 L87.49,123.24 L85.47,124.99 L83.13,121.91 L85.30,120.31 L84.22,118.39 L87.13,117.30 L87.36,116.01 L91.41,117.53 L92.64,114.23 L90.98,110.24 L92.22,106.88 L89.38,106.54 L88.79,103.77 L96.97,105.34 L100.38,99.53 L104.15,100.18 Z M83.65,103.79 L88.43,103.61 L89.38,106.54 L92.22,106.88 L90.98,110.24 L92.64,114.23 L91.41,117.53 L87.36,116.01 L87.13,117.30 L84.22,118.39 L85.30,120.31 L83.13,121.91 L76.57,113.58 L78.55,107.42 L83.67,107.28 L83.65,103.79 Z M79.00,103.72 L83.65,103.79 L83.67,107.28 L78.55,107.42 L79.00,103.72 Z M139.26,134.58 L146.38,138.46 L146.59,146.47 L144.82,150.18 L146.33,150.93 L137.66,153.33 L137.93,155.39 L134.14,156.95 L128.70,162.45 L121.95,160.75 L117.76,161.25 L113.97,157.06 L114.10,147.81 L120.05,147.85 L119.75,142.09 L125.01,144.58 L129.04,144.07 L134.10,148.83 L136.28,148.86 L136.05,145.73 L132.49,144.61 L132.71,136.97 L134.29,134.77 L139.26,134.58 Z M145.03,137.16 L147.83,137.70 L149.37,139.86 L150.17,149.79 L153.39,152.79 L153.63,156.52 L151.53,159.15 L149.66,157.35 L149.88,152.79 L144.82,150.18 L146.59,146.47 L147.10,140.92 L145.03,137.16 Z M150.17,143.81 L158.49,143.95 L166.62,140.32 L167.93,153.02 L164.15,158.92 L158.32,161.43 L150.82,167.81 L150.58,169.88 L153.04,174.51 L152.74,180.41 L145.75,184.00 L144.50,185.07 L145.23,188.02 L143.06,187.99 L142.66,181.13 L140.55,174.98 L144.74,169.32 L145.28,158.89 L140.49,156.42 L138.11,156.48 L137.66,153.33 L146.33,150.93 L149.88,152.79 L149.66,157.35 L151.53,159.15 L153.63,156.52 L153.39,152.79 L150.17,149.79 L150.17,143.81 Z M143.06,187.99 L140.81,189.60 L139.10,188.02 L140.13,185.08 L142.39,185.41 L143.06,187.99 Z M88.56,124.24 L86.24,127.17 L85.47,124.99 L87.49,123.24 L88.56,124.24 Z M86.64,128.07 L98.08,127.42 L101.35,133.79 L105.76,133.55 L106.91,131.14 L108.83,130.52 L113.51,131.53 L114.73,142.55 L118.45,141.92 L120.05,142.99 L120.05,147.85 L114.10,147.81 L113.97,157.06 L117.76,161.25 L112.51,162.43 L105.59,162.02 L103.61,160.63 L91.60,160.96 L89.89,159.64 L84.95,160.60 L86.22,152.32 L90.68,143.17 L86.64,128.07 Z M138.48,117.37 L139.29,120.11 L135.26,123.42 L134.36,118.60 L138.48,117.37 Z M192.98,146.57 L195.36,155.97 L194.86,156.82 L193.89,155.12 L193.35,155.98 L193.64,159.36 L185.99,182.79 L181.17,184.71 L177.26,182.93 L175.27,176.50 L175.52,172.32 L176.84,171.82 L178.47,166.80 L177.04,160.92 L178.42,157.45 L183.75,156.18 L187.73,152.74 L188.20,150.04 L189.41,150.39 L191.98,145.32 L192.98,146.57 Z M3.68,70.87 L8.34,70.06 L11.87,71.14 L3.31,72.16 L3.68,70.87 Z M78.52,22.34 L77.30,17.13 L73.18,13.52 L72.93,11.33 L74.69,9.71 L75.49,3.06 L78.60,1.89 L80.60,2.24 L80.52,3.71 L82.94,2.64 L81.71,4.62 L82.31,9.20 L80.43,10.66 L80.97,12.24 L84.25,14.12 L84.09,16.35 L79.86,19.24 L79.91,21.67 L78.52,22.34 Z M26.62,30.80 L26.65,26.60 L36.45,23.23 L40.88,20.63 L41.01,18.48 L47.69,16.66 L48.22,15.53 L45.23,8.22 L47.98,6.64 L55.62,4.05 L75.49,3.06 L74.69,9.71 L72.93,11.33 L73.18,13.52 L77.30,17.13 L79.44,24.90 L79.19,33.36 L78.06,34.58 L80.87,39.56 L82.20,39.02 L85.71,42.19 L67.65,53.43 L60.45,55.01 L60.42,53.16 L26.62,30.80 Z M155.51,68.47 L156.72,61.11 L161.17,58.09 L163.62,64.11 L174.52,73.48 L172.43,73.93 L165.79,68.19 L161.47,68.23 L159.73,66.91 L158.84,69.08 L155.51,68.47 Z M45.23,8.22 L48.22,15.53 L47.69,16.66 L41.01,18.48 L40.88,20.63 L36.45,23.23 L26.65,26.60 L26.30,31.59 L18.88,32.28 L15.71,38.42 L11.74,41.55 L9.28,47.92 L2.80,48.14 L10.17,34.11 L15.37,28.93 L18.03,28.61 L24.10,23.43 L23.39,19.81 L26.69,13.82 L31.68,11.30 L34.49,6.51 L45.23,8.22 Z M156.76,46.47 L122.86,46.47 L122.00,23.10 L123.33,18.68 L134.04,20.71 L139.93,18.71 L142.74,20.52 L143.41,19.57 L149.33,19.69 L151.21,24.68 L149.01,29.55 L146.11,27.83 L143.77,23.93 L153.41,40.87 L152.93,43.26 L156.76,46.47 Z M122.86,46.47 L122.86,52.27 L119.57,52.27 L119.54,53.49 L96.75,42.37 L91.84,45.04 L85.71,42.19 L82.20,39.02 L80.87,39.56 L78.06,34.58 L79.19,33.36 L79.60,26.25 L78.52,22.34 L79.91,21.67 L79.86,19.24 L84.09,16.35 L84.25,14.12 L94.99,16.65 L96.33,19.24 L105.96,22.46 L108.72,20.37 L108.06,18.15 L111.01,15.37 L116.85,15.57 L117.82,16.87 L122.63,17.72 L122.86,46.47 Z M187.97,87.11 L179.90,95.83 L176.17,95.96 L171.01,98.98 L167.91,97.99 L164.46,100.42 L154.74,97.44 L150.59,91.21 L147.34,87.96 L145.58,87.75 L146.56,86.09 L148.07,86.02 L149.31,79.49 L153.90,73.83 L155.51,68.47 L158.84,69.08 L159.73,66.91 L161.47,68.23 L165.79,68.19 L170.28,71.29 L172.43,73.93 L170.46,76.58 L170.73,78.26 L173.65,78.62 L173.03,79.65 L176.23,83.69 L187.97,87.11 Z M172.43,73.93 L175.19,74.37 L173.47,76.27 L174.70,77.07 L173.65,78.62 L170.73,78.26 L170.46,76.58 L172.43,73.93 Z M148.30,113.12 L135.94,114.25 L136.79,108.62 L140.50,103.95 L139.35,103.56 L139.53,100.17 L140.70,99.37 L146.83,99.35 L148.59,98.01 L149.94,100.03 L151.53,104.82 L148.27,110.04 L148.30,113.12 Z M138.34,113.65 L139.31,117.00 L134.36,118.60 L135.12,115.06 L138.34,113.65 Z M139.53,100.17 L136.33,96.99 L131.37,97.55 L123.19,87.63 L119.68,85.32 L121.54,84.46 L123.06,80.52 L125.12,80.12 L127.86,82.86 L134.19,83.06 L137.13,80.47 L141.01,81.87 L144.00,78.18 L143.07,75.58 L146.31,74.99 L146.31,79.22 L147.78,80.37 L148.50,85.14 L145.58,87.75 L148.79,89.37 L152.28,94.37 L146.83,99.35 L139.53,100.17 Z" fill="#1e3a8a" fill-rule="evenodd"/>
    </g>
  </g>
  <circle cx="25.47" cy="27.18" r="1.4" fill="#22d3ee"/>
  <circle cx="25.47" cy="27.18" r="1.7" fill="none" stroke="#22d3ee" stroke-width="0.5">
    <animate attributeName="r" values="1.7;3.6;1.7" dur="2.4s" repeatCount="indefinite"/>
    <animate attributeName="opacity" values="0.6;0;0.6" dur="2.4s" repeatCount="indefinite"/>
  </circle>
  <text x="47.9" y="26" font-family="Inter,'Helvetica Neue',Arial,sans-serif" font-size="17" font-weight="700" letter-spacing="0.1em" fill="#1e3a8a">BLUE TEAM AFRICA</text>
  <text x="48.9" y="41" font-family="Inter,'Helvetica Neue',Arial,sans-serif" font-size="8" font-weight="400" letter-spacing="0.24em" fill="#4b6cb7">DIGITAL SOLUTIONS · EAST AFRICA</text>
</svg>